HIERARCHY
ROOT SpineBase
{
  OFFSET 0.000000 0.000000 0.000000
  CHANNELS 6 Xposition Yposition Zposition Zrotation Xrotation Yrotation
  JOINT SpineMid
  {
    OFFSET -0.000000 33.289550 0.000000
    CHANNELS 3 Zrotation Xrotation Yrotation
    JOINT SpineShoulder
    {
      OFFSET 0.061122 24.722381 -0.842860
      CHANNELS 3 Zrotation Xrotation Yrotation
      JOINT Neck
      {
        OFFSET 0.023731 8.172634 -0.653805
        CHANNELS 3 Zrotation Xrotation Yrotation
        JOINT Head
        {
          OFFSET 5.991264 12.236795 4.680183
          CHANNELS 3 Zrotation Xrotation Yrotation
          End Site
          {
            OFFSET 0 0 0
          }
        }
      }
      JOINT ShoulderLeft
      {
        OFFSET -7.512344 -4.284044 -12.260781
        CHANNELS 3 Zrotation Xrotation Yrotation
        JOINT ElbowLeft
        {
          OFFSET -5.846821 -23.645417 -5.783102
          CHANNELS 3 Zrotation Xrotation Yrotation
          JOINT WristLeft
          {
            OFFSET 2.647873 -25.151809 -2.302123
            CHANNELS 3 Zrotation Xrotation Yrotation
            JOINT HandLeft
            {
              OFFSET 1.186788 -7.394407 1.641100
              CHANNELS 3 Zrotation Xrotation Yrotation
              JOINT HandTipLeft
              {
                OFFSET 0.186017 -8.933977 0.368749
                CHANNELS 3 Zrotation Xrotation Yrotation
                End Site
                {
                  OFFSET 0 0 0
                }
              }
              JOINT ThumbLeft
              {
                OFFSET 3.752583 1.221966 0.182574
                CHANNELS 3 Zrotation Xrotation Yrotation
                End Site
                {
                  OFFSET 0 0 0
                }
              }
            }
          }
        }
      }
      JOINT ShoulderRight
      {
        OFFSET 10.682996 -4.455705 13.598698
        CHANNELS 3 Zrotation Xrotation Yrotation
        JOINT ElbowRight
        {
          OFFSET -1.675462 -24.631730 -1.621628
          CHANNELS 3 Zrotation Xrotation Yrotation
          JOINT WristRight
          {
            OFFSET 18.055075 -16.601784 0.330719
            CHANNELS 3 Zrotation Xrotation Yrotation
            JOINT HandRight
            {
              OFFSET 6.373964 3.001372 -3.584402
              CHANNELS 3 Zrotation Xrotation Yrotation
              JOINT HandTipRight
              {
                OFFSET 0.221087 -0.346175 -0.614197
                CHANNELS 3 Zrotation Xrotation Yrotation
                End Site
                {
                  OFFSET 0 0 0
                }
              }
              JOINT ThumbRight
              {
                OFFSET -0.225772 0.542842 -2.802002
                CHANNELS 3 Zrotation Xrotation Yrotation
                End Site
                {
                  OFFSET 0 0 0
                }
              }
            }
          }
        }
      }
    }
  }
  JOINT HipLeft
  {
    OFFSET -3.910074 2.425499 -9.358431
    CHANNELS 3 Zrotation Xrotation Yrotation
    JOINT KneeLeft
    {
      OFFSET -8.645993 -32.963766 -1.417426
      CHANNELS 3 Zrotation Xrotation Yrotation
      JOINT AnkleLeft
      {
        OFFSET -9.216966 -38.311342 7.306715
        CHANNELS 3 Zrotation Xrotation Yrotation
        JOINT FootLeft
        {
          OFFSET 8.590382 -3.786398 -9.518369
          CHANNELS 3 Zrotation Xrotation Yrotation
          End Site
          {
            OFFSET 0 0 0
          }
        }
      }
    }
  }
  JOINT HipRight
  {
    OFFSET 3.932704 -0.192911 1.477330
    CHANNELS 3 Zrotation Xrotation Yrotation
    JOINT KneeRight
    {
      OFFSET -1.040544 -30.514991 4.443546
      CHANNELS 3 Zrotation Xrotation Yrotation
      JOINT AnkleRight
      {
        OFFSET -16.086279 -37.791741 7.971783
        CHANNELS 3 Zrotation Xrotation Yrotation
        JOINT FootRight
        {
          OFFSET 1.778715 -7.740324 -4.143865
          CHANNELS 3 Zrotation Xrotation Yrotation
          End Site
          {
            OFFSET 0 0 0
          }
        }
      }
    }
  }
}
MOTION
Frames: 6
Frame Time: 0.033333
-0.238612 77.507911 304.360654 -0.000000 0.000000 -54.103487 -0.000000 0.000000 54.103487 -0.000000 0.000000 0.000000 -0.000000 0.000000 0.000000 0.000000 0.000000 0.000000 -0.000000 0.000000 0.000000 -0.000000 0.000000 0.000000 -0.000000 0.000000 0.000000 -0.000000 0.000000 0.000000 0.000000 0.000000 0.000000 0.000000 0.000000 0.000000 -0.000000 0.000000 0.000000 -0.000000 0.000000 0.000000 -0.000000 0.000000 0.000000 -0.000000 0.000000 0.000000 0.000000 0.000000 0.000000 0.000000 0.000000 0.000000 -0.000000 0.000000 54.103487 -0.000000 0.000000 0.000000 -0.000000 0.000000 0.000000 0.000000 0.000000 0.000000 -0.000000 0.000000 54.103487 -0.000000 0.000000 0.000000 -0.000000 0.000000 0.000000 0.000000 0.000000 0.000000
-0.315123 77.457453 304.248587 -0.076250 0.120885 -54.208054 0.142650 -0.008849 54.208146 -0.000000 0.000000 0.000000 -0.006075 1.356416 -0.658744 0.000000 0.000000 0.000000 -0.000000 0.000000 0.000000 -0.000000 0.000000 0.000000 -0.000000 0.000000 0.000000 -0.000000 0.000000 0.000000 0.000000 0.000000 0.000000 0.000000 0.000000 0.000000 -0.000000 0.000000 0.000000 -0.000000 0.000000 0.000000 -0.000000 0.000000 0.000000 -0.000000 0.000000 0.000000 0.000000 0.000000 0.000000 0.000000 0.000000 0.000000 0.142650 -0.008849 54.208146 -0.000000 0.000000 0.000000 -0.000000 0.000000 0.000000 0.000000 0.000000 0.000000 0.142650 -0.008849 54.208146 -0.000000 0.000000 0.000000 0.986673 0.952590 -0.315503 0.000000 0.000000 0.000000
-0.367950 77.410642 304.185007 -0.125277 0.188562 -54.330971 0.226237 -0.008176 54.331193 -0.000000 0.000000 0.000000 -0.047038 2.608224 -1.247015 0.000000 0.000000 0.000000 -0.000000 0.000000 0.000000 -0.000000 0.000000 0.000000 -0.000000 0.000000 0.000000 0.279230 -0.790647 -0.003010 0.000000 0.000000 0.000000 0.000000 0.000000 0.000000 -0.000000 0.000000 0.000000 -0.000000 0.000000 0.000000 -0.000000 0.000000 0.000000 -0.000000 0.000000 0.000000 0.000000 0.000000 0.000000 0.000000 0.000000 0.000000 0.226237 -0.008176 54.331193 -0.000000 0.000000 0.000000 -0.000000 0.000000 0.000000 0.000000 0.000000 0.000000 1.278337 -0.135615 54.438343 -0.508267 0.929969 -0.101705 1.916885 1.837347 -0.627006 0.000000 0.000000 0.000000
-0.397094 77.367481 304.169913 -0.147148 0.203165 -54.473088 0.250850 0.001700 54.473345 -0.000000 0.000000 0.000000 -0.127368 3.754342 -1.762738 0.000000 0.000000 0.000000 -0.000000 0.000000 0.000000 -0.401220 -1.029843 -0.075393 0.399929 1.030344 0.068191 0.338033 -1.042557 -0.004678 0.000000 0.000000 0.000000 0.000000 0.000000 0.000000 -0.000000 0.000000 0.000000 -0.000000 0.000000 0.000000 -0.000000 0.000000 0.000000 -0.000000 0.000000 0.000000 0.000000 0.000000 0.000000 0.000000 0.000000 0.000000 0.250850 0.001700 54.473345 -0.000000 0.000000 0.000000 -0.000000 0.000000 0.000000 0.000000 0.000000 0.000000 1.632091 -0.127129 54.617168 -0.694878 1.200682 -0.135029 2.791290 2.656216 -0.932057 0.000000 0.000000 0.000000
-0.402555 77.327968 304.203307 -0.141937 0.164839 -54.635629 0.216573 0.020344 54.635795 -0.000000 0.000000 0.000000 -0.251235 4.794128 -2.204089 0.000000 0.000000 0.000000 -0.000000 0.000000 0.000000 -0.566607 -1.264254 -0.087625 0.287752 2.194718 0.171790 0.616614 -2.132335 -0.087723 0.000000 0.000000 0.000000 0.000000 0.000000 0.000000 -0.000000 0.000000 0.000000 -0.000000 0.000000 0.000000 -0.000000 0.000000 0.000000 -0.000000 0.000000 0.000000 0.000000 0.000000 0.000000 0.000000 0.000000 0.000000 0.216573 0.020344 54.635795 -0.000000 0.000000 0.000000 -0.000000 0.000000 0.000000 0.000000 0.000000 0.000000 1.792151 -0.068662 54.804016 -0.442505 2.125827 -0.423505 3.205835 2.638699 -0.927798 0.000000 0.000000 0.000000
-0.384331 77.292104 304.285187 -0.109720 0.073738 -54.820211 0.123484 0.047195 54.820231 -0.000000 0.000000 0.000000 -0.422499 5.727187 -2.569466 0.000000 0.000000 0.000000 -0.579351 0.575392 0.002321 -0.169405 -2.020098 -0.097213 0.764992 2.663882 0.274087 0.269003 -2.487212 -0.205313 0.000000 0.000000 0.000000 0.000000 0.000000 0.000000 -0.000000 0.000000 0.000000 -0.000000 0.000000 0.000000 -0.000000 0.000000 0.000000 -0.000000 0.000000 0.000000 0.000000 0.000000 0.000000 0.000000 0.000000 0.000000 0.123484 0.047195 54.820231 -0.000000 0.000000 0.000000 -0.000000 0.000000 0.000000 0.000000 0.000000 0.000000 1.756292 0.038612 55.000407 -0.493269 2.204902 -0.461164 3.922230 3.261899 -1.174735 0.000000 0.000000 0.000000
